<svg xmlns="http://www.w3.org/2000/svg" viewBox="0 0 48 48">
  <ellipse cx="24" cy="42" rx="15" ry="3" fill="#000" fill-opacity="0.1"/>
  <!-- Tail -->
  <path d="M22 36c-4 0-9-2-11-5s-1-9 3-12c4-3 10-5 13-1 3 4 1 10-2 14c-2 3-1 5 0 6c1 1-1 3-3 3z" fill="#7A4419"/>
  <!-- Body -->
  <circle cx="24" cy="24" r="11" fill="#C27A3F"/>
  <ellipse cx="24" cy="27" rx="7" ry="8" fill="#C27A3F"/>
  <ellipse cx="24" cy="30" rx="5.5" ry="5.5" fill="#FDF6EC"/>
  <!-- Ears -->
  <path d="M18 16c-1-5 1-8 2-8s2 4 1 8" fill="#C27A3F"/>
  <path d="M30 16c1-5-1-8-2-8s-2 4-1 8" fill="#C27A3F"/>
  <!-- Eyes -->
  <circle cx="20" cy="21" r="1.5" fill="#3D2314"/>
  <circle cx="28" cy="21" r="1.5" fill="#3D2314"/>
  <!-- Nose -->
  <polygon points="23,24 25,24 24,25.5" fill="#3D2314"/>
  <!-- Paws -->
  <circle cx="17" cy="29" r="1.8" fill="#C27A3F"/>
  <circle cx="31" cy="29" r="1.8" fill="#C27A3F"/>
  <!-- Feet -->
  <ellipse cx="19" cy="39" rx="2.5" ry="1.5" fill="#C27A3F"/>
  <ellipse cx="29" cy="39" rx="2.5" ry="1.5" fill="#C27A3F"/>
</svg>
